# AST/ASF file generated using VICON BodyLanguage
# -----------------------------------------------
:version 1.10
:name VICON
:units
  mass 1.0
  length 0.45
  angle deg
:documentation
   .ast/.asf automatically generated from VICON data using
   VICON BodyBuilder and BodyLanguage model FoxedUp or BRILLIANT.MOD
:root
   order TX TY TZ RX RY RZ
   axis XYZ
   position 0 0 0  
   orientation 0 0 0 
:bonedata
  begin
     id 1 
     name lhipjoint
     direction 0.558404 -0.748506 0.357664 
     length 2.4234 
     axis 0 0 0  XYZ
  end
  begin
     id 2 
     name lfemur
     direction 0.34202 -0.939693 0  
     length 7.14567  
     axis 0 0 20  XYZ
    dof rx ry rz
    limits (-160.0 20.0)
           (-70.0 70.0)
           (-60.0 70.0)
  end
  begin
     id 3 
     name ltibia
     direction 0.34202 -0.939693 0   
     length 8.13956   
     axis 0 0 20   XYZ
    dof rx
    limits (-10.0 170.0)
  end
  begin
     id 4 
     name lfoot
     direction 0.0791314 -0.217412 0.972867   
     length 2.00134   
     axis -90 7.62852e-016 20   XYZ
    dof rx rz
    limits (-45.0 90.0)
           (-70.0 20.0)
  end
  begin
     id 5 
     name ltoes
     direction 1.53547e-011 -4.21922e-011 1   
     length 1.00735   
     axis -90 7.62852e-016 20   XYZ
    dof rx
    limits (-90.0 20.0)
  end
  begin
     id 6 
     name rhipjoint
     direction -0.496392 -0.78327 0.374276   
     length 2.31584  
     axis 0 0 0  XYZ 
  end
  begin
     id 7 
     name rfemur
     direction -0.34202 -0.939693 0   
     length 7.47417   
     axis 0 0 -20   XYZ
    dof rx ry rz
    limits (-160.0 20.0)
           (-70.0 70.0)
           (-70.0 60.0)
  end
  begin
     id 8 
     name rtibia
     direction -0.34202 -0.939693 0   
     length 7.69071   
     axis 0 0 -20   XYZ
    dof rx
    limits (-10.0 170.0)
 end
 begin
     id 9 
     name rfoot
     direction -0.103069 -0.28318 0.953512   
     length 2.16135  
     axis -90 -7.62852e-016 -20   XYZ
    dof rx rz
    limits (-45.0 90.0)
           (-20.0 70.0)
  end
  begin
     id 10 
     name rtoes
     direction -1.53581e-011 -4.21904e-011 1   
     length 1.07867   
     axis -90 -7.62852e-016 -20   XYZ
    dof rx
    limits (-90.0 20.0)
  end
  begin
     id 11 
     name lowerback
     direction -0.0258961 0.994776 -0.0987407   
     length 2.19412   
     axis 0 0 0   XYZ
    dof rx ry rz
    limits (-20.0 45.0)
           (-30.0 30.0)
           (-30.0 30.0)
  end
  begin
     id 12 
     name upperback
     direction 0.0402454 0.999185 0.00320666   
     length 2.18445   
     axis 0 0 0   XYZ
    dof rx ry rz
    limits (-20.0 45.0)
           (-30.0 30.0)
           (-30.0 30.0)
  end
  begin
     id 13 
     name thorax
     direction 0.0519376 0.997415 0.0496558   
     length 2.21487   
     axis 0 0 0   XYZ
    dof rx ry rz
    limits (-20.0 45.0)
           (-30.0 30.0)
           (-30.0 30.0)
  end
  begin
     id 14 
     name lowerneck
     direction -0.0921276 0.983211 0.157506   
     length 1.61201   
     axis 0 0 0   XYZ
    dof rx ry rz
    limits (-20.0 45.0)
           (-30.0 30.0)
           (-30.0 30.0)
  end
  begin
     id 15 
     name upperneck
     direction 0.0820814 0.98162 -0.172292   
     length 1.65275   
     axis 0 0 0   XYZ
    dof rx ry rz
    limits (-20.0 45.0)
           (-30.0 30.0)
           (-30.0 30.0)
  end
  begin
     id 16
     name head
     direction 0.0336554 0.996413 -0.0776455  
     length 1.66415  
     axis 0 0 0   XYZ
    dof rx ry rz
    limits (-20.0 45.0)
           (-30.0 30.0)
           (-30.0 30.0)
  end
  begin
     id 17 
     name lclavicle
     direction 0.94696 0.284418 -0.149576  
     length 3.41447  
     axis 0 0 0   XYZ
    dof ry rz
    limits (-20.0 10.0)
           (0.0 20.0)
  end
  begin
     id 18 
     name lhumerus
     direction 1 -0.000130264 -9.81312e-005   
     length 5.19964   
     axis 180 -30 -90   XYZ
    dof rx ry rz
    limits (-60.0 90.0)
           (-90.0 90.0)
           (-90.0 90.0)
  end
  begin
     id 19
     name lradius
     direction 1 -4.48961e-011 1.43854e-026   
     length 3.32189   
     axis 180 -30 -90   XYZ
    dof rx
    limits (-10.0 170.0)
  end
  begin
     id 20
     name lwrist
     direction 1 -4.48958e-011 3.1502e-026   
     length 1.66095   
     axis -1.97692e-014 90 90   XYZ
    dof ry
    limits (-180.0 0.0)
 end
  begin
     id 21 
     name lhand
     direction 1 -4.48927e-011 6.3004e-026   
     length 0.645616   
     axis -4.02019e-014 90 90   XYZ
    dof rx rz
    limits (-90.0 90.0)
           (-45.0 45.0)
  end
  begin
     id 22 
     name lfingers
     direction 1 -4.4904e-011 1.26008e-025   
     length 0.520512   
     axis -8.04039e-014 90 90   XYZ
    dof rx
    limits (0.0 90.0)
  end
  begin
     id 23
     name lthumb
     direction 0.707107 -6.34947e-011 0.707107   
     length 0.747354   
     axis -90 45 2.85299e-015   XYZ
    dof rx rz
    limits (-45.0 45.0)
           (-45.0 45.0)
  end
  begin
     id 24 
     name rclavicle
     direction -0.909391 0.383475 -0.161107   
     length 3.25176  
     axis 0 0 0   XYZ 
    dof ry rz
    limits (-10.0 20.0)
           (-20.0 0.0)
  end
  begin
     id 25 
     name rhumerus
     direction -1 -4.48965e-011 -1.81384e-027  
     length 5.6595   
     axis 180 30 90   XYZ
    dof rx ry rz
    limits (-90.0 60.0)
           (-90.0 90.0)
           (-90.0 90.0)
  end
  begin
     id 26 
     name rradius
     direction -1 -4.48996e-011 -8.09397e-027   
     length 3.37604   
     axis 180 30 90   XYZ
    dof rx
    limits (-10.0 170.0)
  end
  begin
     id 27 
     name rwrist
     direction -1 -4.48927e-011 -1.56669e-026   
     length 1.68802   
     axis 1.21142e-014 -90 -90   XYZ
    dof ry
    limits (-180.0 0.0)
  end
  begin
     id 28
     name rhand
     direction -1 -4.48912e-011 -3.13339e-026   
     length 0.824702   
     axis 1.99937e-014 -90 -90   XYZ
    dof rx rz
    limits (-90.0 90.0)
           (-45.0 45.0)
  end
  begin
     id 29
     name rfingers
     direction -1 -4.49011e-011 -6.26677e-026   
     length 0.664896   
     axis 3.99874e-014 -90 -90   XYZ
    dof rx
    limits (0.0 90.0)
  end
  begin
     id 30
     name rthumb
     direction -0.707107 -6.34931e-011 0.707107   
     length 0.954662   
     axis -90 -45 -2.85299e-015   XYZ
    dof rx rz
    limits (-45.0 45.0)
           (-45.0 45.0)
  end
:hierarchy
  begin
    root lhipjoint rhipjoint lowerback
    lhipjoint lfemur
    lfemur ltibia
    ltibia lfoot
    lfoot ltoes
    rhipjoint rfemur
    rfemur rtibia
    rtibia rfoot
    rfoot rtoes
    lowerback upperback
    upperback thorax
    thorax lowerneck lclavicle rclavicle
    lowerneck upperneck
    upperneck head
    lclavicle lhumerus
    lhumerus lradius
    lradius lwrist
    lwrist lhand lthumb
    lhand lfingers
    rclavicle rhumerus
    rhumerus rradius
    rradius rwrist
    rwrist rhand rthumb
    rhand rfingers
  end

#!OML:ASF F:\VICON\USERDATA\INSTALL\rory3\rory3.ASF
:FULLY-SPECIFIED
:DEGREES
226
root 9.56239 17.7211 -14.2098 3.4173 -45.6459 -3.60625
lowerback 2.71534 -3.8611 -3.78801
upperback -2.13056 -5.22143 4.56672
thorax -2.9629 -2.49257 7.13311
lowerneck -12.0395 -6.55704 -13.6742
upperneck 22.7725 -9.04228 10.3273
head 10.3587 -4.3761 4.77458
rclavicle 1.55847e-013 -2.22639e-014
rhumerus -43.118 -26.9145 -54.0744
rradius 30.8138
rwrist -12.8758
rhand -11.171 15.7395
rfingers 7.12502
rthumb 14.8557 -13.7079
lclavicle 1.55847e-013 -2.22639e-014
lhumerus -24.4882 7.38307 79.9593
lradius 34.2403
lwrist -13.9206
lhand -0.802668 28.417
lfingers 7.12502
lthumb 24.8213 56.8259
rfemur -17.4257 10.6649 13.7169
rtibia 36.5569
rfoot -17.2648 -1.58863
rtoes 7.04553
lfemur -7.3118 2.3856 -19.8107
ltibia 34.2984
lfoot -25.9037 16.917
ltoes 5.29054
227
root 9.56344 17.7221 -14.2085 3.48742 -45.6752 -3.68647
lowerback 2.71613 -3.83925 -3.75317
upperback -2.16325 -5.19011 4.59227
thorax -3.00273 -2.47546 7.14164
lowerneck -11.2544 -6.55958 -14.3869
upperneck 22.4342 -9.1798 11.1162
head 10.1813 -4.44687 5.1757
rclavicle -1.79403e-014 -2.38542e-014
rhumerus -43.1965 -26.6798 -53.8762
rradius 30.7561
rwrist -13.1703
rhand -11.1545 15.6006
rfingers 7.12502
rthumb 14.8716 -13.8456
lclavicle -1.79403e-014 -2.38542e-014
lhumerus -23.9869 6.2846 79.8321
lradius 33.9956
lwrist -12.9312
lhand -0.726922 28.5064
lfingers 7.12502
lthumb 24.8939 56.9054
rfemur -17.4451 10.6898 13.787
rtibia 36.5245
rfoot -17.2416 -1.71983
rtoes 6.26946
lfemur -7.32183 2.19058 -19.7958
ltibia 34.3058
lfoot -25.8786 17.1721
ltoes 4.96732
228
root 9.56242 17.7212 -14.2011 3.40369 -45.7294 -3.61285
lowerback 2.66344 -3.83822 -3.85885
upperback -2.12233 -5.19218 4.64221
thorax -2.91666 -2.47818 7.24779
lowerneck -10.5114 -6.61975 -15.4973
upperneck 21.9382 -9.38401 12.2362
head 10.0085 -4.54869 5.75363
rclavicle -6.03808e-015 2.22639e-014
rhumerus -43.0906 -26.6553 -53.6279
rradius 30.5756
rwrist -12.9178
rhand -11.52 15.685
rfingers 7.12502
rthumb 14.5195 -13.7869
lclavicle -6.03808e-015 2.22639e-014
lhumerus -23.9103 5.74028 79.997
lradius 34.1257
lwrist -12.526
lhand -0.831141 28.3957
lfingers 7.12502
lthumb 24.794 56.8084
rfemur -17.4163 10.8005 13.7199
rtibia 36.5954
rfoot -17.3646 -1.89122
rtoes 5.97067
lfemur -7.15873 1.99823 -19.9322
ltibia 34.1513
lfoot -25.8153 17.4922
ltoes 4.53077
229
root 9.56186 17.719 -14.1899 3.50782 -45.858 -3.85672
lowerback 2.55884 -3.81058 -3.67237
upperback -2.00161 -5.14639 4.69167
thorax -2.75017 -2.46793 7.17706
lowerneck -10.1712 -6.74204 -16.1724
upperneck 21.6182 -9.61548 12.9185
head 9.94043 -4.65709 6.08816
rclavicle -8.87077e-015 3.65764e-014
rhumerus -43.0158 -27.1628 -53.2943
rradius 30.402
rwrist -12.3659
rhand -11.7328 15.7568
rfingers 7.12502
rthumb 14.3145 -13.7297
lclavicle -8.87077e-015 3.65764e-014
lhumerus -23.9622 5.73776 80.0693
lradius 34.4179
lwrist -12.9117
lhand -0.718984 28.1364
lfingers 7.12502
lthumb 24.9015 56.5343
rfemur -17.3184 10.9525 13.9172
rtibia 36.5805
rfoot -17.3702 -1.96288
rtoes 6.07182
lfemur -7.00741 2.01585 -19.7924
ltibia 34.1271
lfoot -25.9533 17.492
ltoes 4.88339
230
root 9.56146 17.7119 -14.1912 1.83835 -45.3309 -1.48451
lowerback 2.54119 -4.02256 -5.39293
upperback -2.05074 -5.50343 4.24496
thorax -2.62681 -2.61545 7.68893
lowerneck -10.0561 -6.8244 -16.3506
upperneck 21.5684 -9.7464 13.0495
head 9.94031 -4.72456 6.14949
rclavicle 6.21202e-015 -2.62396e-014
rhumerus -43.0717 -27.6032 -52.9136
rradius 30.3142
rwrist -11.986
rhand -11.801 15.8609
rfingers 7.12502
rthumb 14.2487 -13.6303
lclavicle 6.21202e-015 -2.62396e-014
lhumerus -23.9211 5.96077 79.9238
lradius 34.5114
lwrist -13.2717
lhand -0.195081 27.881
lfingers 7.12502
lthumb 25.4035 56.2085
rfemur -17.2564 9.6531 11.9397
rtibia 36.7084
rfoot -17.5257 -1.2014
rtoes 6.32701
lfemur -6.91338 1.80591 -21.6943
ltibia 33.9166
lfoot -25.7337 17.3979
ltoes 4.07843
231
root 9.56217 17.7188 -14.1818 3.26552 -45.8743 -3.47934
lowerback 2.49139 -3.87803 -3.99589
upperback -2.00307 -5.24918 4.61769
thorax -2.67733 -2.51556 7.27892
lowerneck -10.1007 -6.87392 -16.3265
upperneck 21.693 -9.81107 12.9669
head 9.99875 -4.76046 6.10742
rclavicle -2.29596e-014 1.27222e-014
rhumerus -43.0399 -27.5682 -52.6975
rradius 30.2489
rwrist -11.7731
rhand -11.6143 15.9865
rfingers 7.12502
rthumb 14.4286 -13.4919
lclavicle -2.29596e-014 1.27222e-014
lhumerus -23.8841 6.01047 79.8315
lradius 34.5826
lwrist -13.0294
lhand -0.443575 27.9357
lfingers 7.12502
lthumb 25.1654 56.2968
rfemur -17.3732 10.8298 13.5619
rtibia 36.7412
rfoot -17.4875 -1.73132
rtoes 7.03256
lfemur -6.86286 1.93508 -20.1453
ltibia 33.8473
lfoot -25.7682 17.7175
ltoes 3.83828
